<svg viewBox="0 0 250 250" xmlns="http://www.w3.org/2000/svg" fill-rule="evenodd" clip-rule="evenodd" stroke-linejoin="round" stroke-miterlimit="2"><path fill="none" d="M0 0h250v250H0z"/><path d="M10.299 161.08C6.905 149.976 5.081 138.2 5.081 126c0-66.23 53.77-120 120-120 60.805 0 111.109 45.323 118.94 103.996l.03-.001-.011.146A120.895 120.895 0 01245.081 126c0 66.23-53.771 120-120 120-9.683 0-19.1-1.149-28.128-3.321l-23.331-8.258a120.413 120.413 0 01-33.623-23.831l-14.104-17.062a119.914 119.914 0 01-4.779-7.597l-4.485-8.534c-.82-1.725-1.6-3.473-2.338-5.241-1.757-3.111-3.994-11.076-3.994-11.076zm153.39 75.541l.289-19.287-23.025-23.59-50.007-.216L69.1 215.909l21.204 21.637h27.495v5.373c2.411.149 4.838.224 7.282.224 13.525 0 26.518-2.297 38.608-6.522zm76.883-90.928l-42.474 44.039.209.214-26.732 27.388-.251 16.313c35.889-15.456 62.531-48.336 69.248-87.954zM29.374 193.528c11.288 15.963 26.469 28.984 44.155 37.674l-36.63-37.674h-7.525zm138.402-23.986l-19.915 20.404 19.915 20.404 19.915-20.404-19.915-20.404zM44.007 189.934l19.551 20.031 19.832-20.236-19.631-20.031-19.752 20.236zm96.946-47.873l-50.649-.149-21.405 21.842 21.646 22.177 50.408.217 21.516-22.044-21.516-22.043zM24.43 185.931h12.099l46.861-47.817-19.974-20.381-46.785 47.74v4.859a116.6 116.6 0 007.799 15.599zm196.464-67.976l-46.228 46.029 18.975 19.44 44.846-45.895-.043-19.596-17.55.022zm-122.432 42.72c2.334-7.44 7.002-7.44 9.336-5.58 2.334 1.86 2.334 5.58 0 9.3-1.634 2.789-5.835 6.115-9.336 7.975-3.501-1.86-7.703-5.186-9.336-7.975-2.334-3.72-2.334-7.44 0-9.3 2.334-1.86 7.002-1.86 9.336 5.58zm36.18.03c2.306-7.352 6.919-7.352 9.225-5.514 2.307 1.838 2.307 5.514 0 9.19-1.614 2.757-5.766 6.043-9.225 7.881-3.46-1.838-7.612-5.124-9.226-7.881-2.307-3.676-2.307-7.352 0-9.19 2.306-1.838 6.919-1.838 9.226 5.514zm106.5-50.669C233.351 52.928 184.322 8.857 125.081 8.857 60.428 8.857 7.938 61.347 7.938 126c0 11.366 1.622 22.356 4.646 32.748l47.54-48.508V88.566L32.806 60.692l30.61-31.235 26.888 27.436 50.649.046 26.823-27.482 30.531 31.28-26.732 27.388v22.749l22.506 23.059 23.672-23.571 23.389-.326zm-93.281 28.226l19.915 20.404 19.915-20.404-19.915-20.404-19.915 20.404zm-6.908-73.727l-50.649-.045-22.583 23.044v23.673l1.067 1.045-.053.055 21.569 22.009 50.649.148 23.025-23.59V88.179l-1.573-1.535.064-.065-21.516-22.044zm26.823-24.202l-19.915 20.404 19.915 20.404 19.915-20.404-19.915-20.404zM43.443 60.692l19.973 20.381L83.39 60.692 63.416 40.311 43.443 60.692z" fill="#170c09"/></svg>